<svg width="256" height="53" viewBox="0 0 256 53" fill="none" xmlns="http://www.w3.org/2000/svg">
<path d="M179.904 36V25.536H186.592V27.104H181.76V30.064H185.872V31.632H181.76V36H179.904ZM188.074 36V28.144H189.594L189.754 29.92H189.802C190.207 29.28 190.692 28.7947 191.258 28.464C191.834 28.1227 192.463 27.952 193.146 27.952C193.466 27.952 193.738 27.9787 193.962 28.032C194.196 28.0747 194.431 28.1547 194.666 28.272L194.282 29.824C194.026 29.7387 193.796 29.68 193.594 29.648C193.402 29.6053 193.156 29.584 192.858 29.584C192.314 29.584 191.791 29.7387 191.29 30.048C190.788 30.3573 190.335 30.896 189.93 31.664V36H188.074ZM198.788 36.192C198.276 36.192 197.78 36.1013 197.3 35.92C196.82 35.7387 196.398 35.472 196.036 35.12C195.673 34.768 195.38 34.336 195.156 33.824C194.942 33.312 194.836 32.7307 194.836 32.08C194.836 31.4293 194.942 30.848 195.156 30.336C195.38 29.824 195.673 29.392 196.036 29.04C196.398 28.688 196.82 28.4213 197.3 28.24C197.78 28.048 198.276 27.952 198.788 27.952C199.3 27.952 199.796 28.048 200.276 28.24C200.756 28.4213 201.177 28.688 201.54 29.04C201.902 29.392 202.19 29.824 202.404 30.336C202.628 30.848 202.74 31.4293 202.74 32.08C202.74 32.7307 202.628 33.312 202.404 33.824C202.19 34.336 201.902 34.768 201.54 35.12C201.177 35.472 200.756 35.7387 200.276 35.92C199.796 36.1013 199.3 36.192 198.788 36.192ZM198.788 34.688C199.428 34.688 199.929 34.4533 200.292 33.984C200.654 33.504 200.836 32.8693 200.836 32.08C200.836 31.28 200.654 30.6453 200.292 30.176C199.929 29.696 199.428 29.456 198.788 29.456C198.148 29.456 197.646 29.696 197.284 30.176C196.921 30.6453 196.74 31.28 196.74 32.08C196.74 32.8693 196.921 33.504 197.284 33.984C197.646 34.4533 198.148 34.688 198.788 34.688ZM203.293 36V28.144H204.813L204.957 29.328H205.021C205.395 28.9547 205.805 28.6347 206.253 28.368C206.712 28.0907 207.245 27.952 207.853 27.952C208.76 27.952 209.427 28.2293 209.853 28.784C210.28 29.328 210.493 30.112 210.493 31.136V36H208.637V31.376C208.637 30.736 208.525 30.272 208.301 29.984C208.088 29.6853 207.709 29.536 207.165 29.536C206.781 29.536 206.44 29.6267 206.141 29.808C205.843 29.9893 205.512 30.2667 205.149 30.64V36H203.293ZM216.231 36.192C215.634 36.192 215.127 36.112 214.711 35.952C214.306 35.792 213.975 35.568 213.719 35.28C213.474 34.9813 213.292 34.624 213.175 34.208C213.068 33.792 213.015 33.3333 213.015 32.832V29.6H210.919V28.224L213.095 28.144L213.335 25.68H214.855V28.144H218.439V29.6H214.855V32.832C214.855 33.4827 214.988 33.9627 215.255 34.272C215.532 34.5707 216.007 34.72 216.679 34.72C217.01 34.72 217.314 34.6933 217.591 34.64C217.868 34.576 218.135 34.496 218.391 34.4L218.743 35.744C218.391 35.8613 218.012 35.9627 217.607 36.048C217.202 36.144 216.743 36.192 216.231 36.192ZM179.248 49V38.536H182C183.547 38.536 184.752 38.968 185.616 39.832C186.491 40.696 186.928 41.992 186.928 43.72C186.928 44.584 186.816 45.3467 186.592 46.008C186.368 46.6693 186.048 47.224 185.632 47.672C185.216 48.1093 184.709 48.44 184.112 48.664C183.515 48.888 182.843 49 182.096 49H179.248ZM181.104 47.496H181.888C182.891 47.496 183.664 47.192 184.208 46.584C184.752 45.9653 185.024 45.0107 185.024 43.72C185.024 42.44 184.752 41.5067 184.208 40.92C183.664 40.3333 182.891 40.04 181.888 40.04H181.104V47.496ZM191.274 49.192C190.676 49.192 190.116 49.1013 189.594 48.92C189.071 48.728 188.612 48.456 188.218 48.104C187.834 47.752 187.53 47.32 187.306 46.808C187.082 46.296 186.97 45.7147 186.97 45.064C186.97 44.424 187.082 43.8533 187.306 43.352C187.53 42.84 187.828 42.408 188.202 42.056C188.586 41.6933 189.018 41.4213 189.498 41.24C189.988 41.048 190.5 40.952 191.034 40.952C191.62 40.952 192.138 41.048 192.586 41.24C193.034 41.4213 193.412 41.6773 193.722 42.008C194.031 42.328 194.266 42.7173 194.426 43.176C194.586 43.6347 194.666 44.136 194.666 44.68C194.666 44.8613 194.655 45.0373 194.634 45.208C194.623 45.368 194.607 45.5013 194.586 45.608H188.81C188.916 46.344 189.21 46.888 189.69 47.24C190.17 47.592 190.778 47.768 191.514 47.768C191.93 47.768 192.314 47.7093 192.666 47.592C193.018 47.4747 193.37 47.3147 193.722 47.112L194.346 48.264C193.93 48.5413 193.455 48.7653 192.922 48.936C192.399 49.1067 191.85 49.192 191.274 49.192ZM191.082 42.376C190.538 42.376 190.058 42.536 189.642 42.856C189.236 43.176 188.975 43.656 188.858 44.296H193.034C192.97 43.656 192.767 43.176 192.426 42.856C192.095 42.536 191.647 42.376 191.082 42.376ZM197.78 49L194.644 41.144H196.5L198.02 45.224C198.169 45.6187 198.302 46.0133 198.42 46.408C198.548 46.792 198.676 47.1867 198.804 47.592H198.868C198.996 47.1867 199.118 46.792 199.236 46.408C199.364 46.0133 199.502 45.6187 199.652 45.224L201.172 41.144H202.932L199.876 49H197.78Z" fill="#FF8989"/>
<path d="M223.249 36.192C222.694 36.192 222.171 36.1013 221.681 35.92C221.19 35.7387 220.758 35.4773 220.385 35.136C220.022 34.784 219.734 34.3573 219.521 33.856C219.307 33.3547 219.201 32.7893 219.201 32.16C219.201 31.5413 219.307 30.9813 219.521 30.48C219.734 29.9787 220.017 29.5573 220.369 29.216C220.721 28.864 221.126 28.5973 221.585 28.416C222.054 28.224 222.539 28.128 223.041 28.128C223.563 28.128 224.038 28.2133 224.465 28.384C224.891 28.544 225.254 28.7787 225.553 29.088C225.851 29.3867 226.081 29.7547 226.241 30.192C226.401 30.6293 226.481 31.1253 226.481 31.68C226.481 31.776 226.481 31.8773 226.481 31.984C226.481 32.08 226.47 32.176 226.449 32.272H219.921C219.931 32.8053 220.027 33.28 220.209 33.696C220.401 34.112 220.651 34.4587 220.961 34.736C221.27 35.0133 221.622 35.2267 222.017 35.376C222.422 35.5147 222.849 35.584 223.297 35.584C223.819 35.584 224.289 35.5093 224.705 35.36C225.121 35.2 225.51 34.9973 225.873 34.752L226.161 35.28C225.819 35.5147 225.419 35.728 224.961 35.92C224.502 36.1013 223.931 36.192 223.249 36.192ZM223.057 28.736C222.683 28.736 222.321 28.8 221.969 28.928C221.627 29.056 221.313 29.248 221.025 29.504C220.747 29.7493 220.513 30.0533 220.321 30.416C220.129 30.7787 220.006 31.1947 219.953 31.664H225.841C225.787 30.672 225.505 29.936 224.993 29.456C224.481 28.976 223.835 28.736 223.057 28.736ZM227.643 36V28.32H228.251L228.331 29.792H228.395C228.843 29.312 229.301 28.9173 229.771 28.608C230.251 28.288 230.8 28.128 231.419 28.128C233.264 28.128 234.187 29.1573 234.187 31.216V36H233.467V31.312C233.467 30.448 233.296 29.808 232.955 29.392C232.624 28.976 232.075 28.768 231.307 28.768C231.029 28.768 230.773 28.8053 230.539 28.88C230.304 28.944 230.069 29.0507 229.835 29.2C229.611 29.3387 229.376 29.52 229.131 29.744C228.896 29.9573 228.64 30.208 228.363 30.496V36H227.643ZM238.42 36.192C237.919 36.192 237.46 36.1067 237.044 35.936C236.628 35.7547 236.271 35.4933 235.972 35.152C235.674 34.8107 235.439 34.3947 235.268 33.904C235.108 33.4027 235.028 32.8267 235.028 32.176C235.028 31.5573 235.124 30.9973 235.316 30.496C235.519 29.9947 235.786 29.568 236.116 29.216C236.458 28.864 236.842 28.5973 237.268 28.416C237.706 28.224 238.164 28.128 238.644 28.128C239.135 28.128 239.583 28.224 239.988 28.416C240.394 28.608 240.788 28.8747 241.172 29.216H241.204L241.156 27.664V24.496H241.876V36H241.268L241.188 34.864H241.156C240.815 35.216 240.41 35.5253 239.94 35.792C239.471 36.0587 238.964 36.192 238.42 36.192ZM238.516 35.568C238.964 35.568 239.407 35.4453 239.844 35.2C240.292 34.9547 240.73 34.608 241.156 34.16V29.888C240.719 29.472 240.298 29.1787 239.892 29.008C239.498 28.8373 239.098 28.752 238.692 28.752C238.287 28.752 237.908 28.8427 237.556 29.024C237.204 29.1947 236.895 29.4347 236.628 29.744C236.362 30.0427 236.154 30.4053 236.004 30.832C235.855 31.248 235.78 31.696 235.78 32.176C235.78 32.688 235.839 33.152 235.956 33.568C236.084 33.984 236.266 34.3413 236.5 34.64C236.735 34.928 237.023 35.1573 237.364 35.328C237.706 35.488 238.09 35.568 238.516 35.568ZM207.261 49.192C206.707 49.192 206.184 49.1013 205.693 48.92C205.203 48.7387 204.771 48.4773 204.397 48.136C204.035 47.784 203.747 47.3573 203.533 46.856C203.32 46.3547 203.213 45.7893 203.213 45.16C203.213 44.5413 203.32 43.9813 203.533 43.48C203.747 42.9787 204.029 42.5573 204.381 42.216C204.733 41.864 205.139 41.5973 205.597 41.416C206.067 41.224 206.552 41.128 207.053 41.128C207.576 41.128 208.051 41.2133 208.477 41.384C208.904 41.544 209.267 41.7787 209.565 42.088C209.864 42.3867 210.093 42.7547 210.253 43.192C210.413 43.6293 210.493 44.1253 210.493 44.68C210.493 44.776 210.493 44.8773 210.493 44.984C210.493 45.08 210.483 45.176 210.461 45.272H203.933C203.944 45.8053 204.04 46.28 204.221 46.696C204.413 47.112 204.664 47.4587 204.973 47.736C205.283 48.0133 205.635 48.2267 206.029 48.376C206.435 48.5147 206.861 48.584 207.309 48.584C207.832 48.584 208.301 48.5093 208.717 48.36C209.133 48.2 209.523 47.9973 209.885 47.752L210.173 48.28C209.832 48.5147 209.432 48.728 208.973 48.92C208.515 49.1013 207.944 49.192 207.261 49.192ZM207.069 41.736C206.696 41.736 206.333 41.8 205.981 41.928C205.64 42.056 205.325 42.248 205.037 42.504C204.76 42.7493 204.525 43.0533 204.333 43.416C204.141 43.7787 204.019 44.1947 203.965 44.664H209.853C209.8 43.672 209.517 42.936 209.005 42.456C208.493 41.976 207.848 41.736 207.069 41.736ZM216.599 49.192C215.863 49.192 215.298 48.9947 214.903 48.6C214.508 48.1947 214.311 47.5547 214.311 46.68V38.104H211.399V37.496H215.015V46.776C215.015 47.384 215.159 47.8373 215.447 48.136C215.735 48.424 216.151 48.568 216.695 48.568C217.207 48.568 217.735 48.4347 218.279 48.168L218.503 48.712C218.172 48.872 217.863 48.9893 217.575 49.064C217.298 49.1493 216.972 49.192 216.599 49.192ZM222.769 49.192C222.267 49.192 221.787 49.1013 221.329 48.92C220.881 48.7387 220.486 48.4773 220.145 48.136C219.803 47.7947 219.531 47.3787 219.329 46.888C219.137 46.3867 219.041 45.816 219.041 45.176C219.041 44.536 219.137 43.9653 219.329 43.464C219.531 42.952 219.803 42.5253 220.145 42.184C220.486 41.8427 220.881 41.5813 221.329 41.4C221.787 41.2187 222.267 41.128 222.769 41.128C223.27 41.128 223.745 41.2187 224.193 41.4C224.651 41.5813 225.051 41.8427 225.393 42.184C225.734 42.5253 226.001 42.952 226.193 43.464C226.395 43.9653 226.497 44.536 226.497 45.176C226.497 45.816 226.395 46.3867 226.193 46.888C226.001 47.3787 225.734 47.7947 225.393 48.136C225.051 48.4773 224.651 48.7387 224.193 48.92C223.745 49.1013 223.27 49.192 222.769 49.192ZM222.769 48.568C223.195 48.568 223.59 48.488 223.953 48.328C224.326 48.1573 224.641 47.9227 224.897 47.624C225.163 47.3253 225.371 46.968 225.521 46.552C225.67 46.136 225.745 45.6773 225.745 45.176C225.745 44.664 225.67 44.2 225.521 43.784C225.371 43.368 225.163 43.0107 224.897 42.712C224.641 42.4027 224.326 42.168 223.953 42.008C223.59 41.8373 223.195 41.752 222.769 41.752C222.331 41.752 221.931 41.8373 221.569 42.008C221.206 42.168 220.891 42.4027 220.625 42.712C220.369 43.0107 220.166 43.368 220.017 43.784C219.867 44.2 219.793 44.664 219.793 45.176C219.793 45.6773 219.867 46.136 220.017 46.552C220.166 46.968 220.369 47.3253 220.625 47.624C220.891 47.9227 221.206 48.1573 221.569 48.328C221.931 48.488 222.331 48.568 222.769 48.568ZM227.643 52.472V41.32H228.251L228.331 42.424H228.363C228.747 42.0507 229.195 41.7413 229.707 41.496C230.219 41.2507 230.725 41.128 231.227 41.128C232.315 41.128 233.131 41.4853 233.675 42.2C234.219 42.904 234.491 43.8533 234.491 45.048C234.491 45.6987 234.389 46.28 234.187 46.792C233.995 47.304 233.733 47.7413 233.403 48.104C233.083 48.456 232.704 48.728 232.267 48.92C231.829 49.1013 231.371 49.192 230.891 49.192C230.517 49.192 230.096 49.096 229.627 48.904C229.157 48.712 228.731 48.4453 228.347 48.104H228.315L228.363 49.672V52.472H227.643ZM230.859 48.568C231.275 48.568 231.659 48.4827 232.011 48.312C232.363 48.1413 232.667 47.9013 232.923 47.592C233.179 47.2827 233.376 46.9147 233.515 46.488C233.664 46.0507 233.739 45.5707 233.739 45.048C233.739 44.5787 233.691 44.1413 233.595 43.736C233.499 43.3307 233.344 42.984 233.131 42.696C232.928 42.3973 232.656 42.168 232.315 42.008C231.984 41.8373 231.584 41.752 231.115 41.752C230.709 41.752 230.267 41.8693 229.787 42.104C229.317 42.328 228.843 42.68 228.363 43.16V47.432C228.811 47.8373 229.259 48.1307 229.707 48.312C230.165 48.4827 230.549 48.568 230.859 48.568ZM239.236 49.192C238.682 49.192 238.159 49.1013 237.668 48.92C237.178 48.7387 236.746 48.4773 236.372 48.136C236.01 47.784 235.722 47.3573 235.508 46.856C235.295 46.3547 235.188 45.7893 235.188 45.16C235.188 44.5413 235.295 43.9813 235.508 43.48C235.722 42.9787 236.004 42.5573 236.356 42.216C236.708 41.864 237.114 41.5973 237.572 41.416C238.042 41.224 238.527 41.128 239.028 41.128C239.551 41.128 240.026 41.2133 240.452 41.384C240.879 41.544 241.242 41.7787 241.54 42.088C241.839 42.3867 242.068 42.7547 242.228 43.192C242.388 43.6293 242.468 44.1253 242.468 44.68C242.468 44.776 242.468 44.8773 242.468 44.984C242.468 45.08 242.458 45.176 242.436 45.272H235.908C235.919 45.8053 236.015 46.28 236.196 46.696C236.388 47.112 236.639 47.4587 236.948 47.736C237.258 48.0133 237.61 48.2267 238.004 48.376C238.41 48.5147 238.836 48.584 239.284 48.584C239.807 48.584 240.276 48.5093 240.692 48.36C241.108 48.2 241.498 47.9973 241.86 47.752L242.148 48.28C241.807 48.5147 241.407 48.728 240.948 48.92C240.49 49.1013 239.919 49.192 239.236 49.192ZM239.044 41.736C238.671 41.736 238.308 41.8 237.956 41.928C237.615 42.056 237.3 42.248 237.012 42.504C236.735 42.7493 236.5 43.0533 236.308 43.416C236.116 43.7787 235.994 44.1947 235.94 44.664H241.828C241.775 43.672 241.492 42.936 240.98 42.456C240.468 41.976 239.823 41.736 239.044 41.736ZM244.558 49V41.32H245.166L245.246 43.208H245.278C245.694 42.6 246.206 42.104 246.814 41.72C247.433 41.3253 248.126 41.128 248.894 41.128C249.15 41.128 249.406 41.1493 249.662 41.192C249.929 41.2347 250.185 41.32 250.43 41.448L250.238 42.072C249.961 41.976 249.721 41.9067 249.518 41.864C249.326 41.8213 249.081 41.8 248.782 41.8C248.142 41.8 247.529 41.9813 246.942 42.344C246.366 42.7067 245.811 43.3253 245.278 44.2V49H244.558Z" fill="#A3A3A3"/>
<rect x="169" width="1" height="50" fill="#FF8989"/>
<path d="M3.41125 25V1.48H7.95525V25H3.41125ZM17.6833 25L10.5153 14.824H15.6033L22.9953 25H17.6833ZM6.61125 17.192V13.512H12.5633C13.3953 13.512 14.1099 13.3413 14.7073 13C15.3259 12.6587 15.8059 12.1787 16.1473 11.56C16.4886 10.9413 16.6593 10.2373 16.6593 9.448C16.6593 8.63733 16.4886 7.92267 16.1473 7.304C15.8059 6.68533 15.3259 6.20533 14.7073 5.864C14.1099 5.52267 13.3953 5.352 12.5633 5.352H6.61125V1.48H12.0833C13.9606 1.48 15.5819 1.75733 16.9473 2.312C18.3339 2.86667 19.4006 3.70933 20.1473 4.84C20.8939 5.97067 21.2673 7.38933 21.2673 9.096V9.608C21.2673 11.336 20.8833 12.7547 20.1153 13.864C19.3686 14.9733 18.3126 15.8053 16.9473 16.36C15.5819 16.9147 13.9606 17.192 12.0833 17.192H6.61125ZM37.106 25.608C34.994 25.608 33.1593 25.2347 31.602 24.488C30.066 23.7413 28.786 22.7707 27.762 21.576C26.7593 20.36 26.002 19.0587 25.49 17.672C24.9993 16.264 24.754 14.9093 24.754 13.608V12.904C24.754 11.4747 25.01 10.056 25.522 8.648C26.034 7.21867 26.802 5.928 27.826 4.776C28.8713 3.624 30.162 2.70667 31.698 2.024C33.234 1.32 35.0367 0.967999 37.106 0.967999C39.154 0.967999 40.946 1.32 42.482 2.024C44.018 2.70667 45.298 3.624 46.322 4.776C47.3673 5.928 48.146 7.21867 48.658 8.648C49.17 10.056 49.426 11.4747 49.426 12.904V13.608C49.426 14.9093 49.17 16.264 48.658 17.672C48.1673 19.0587 47.41 20.36 46.386 21.576C45.3833 22.7707 44.1033 23.7413 42.546 24.488C41.01 25.2347 39.1967 25.608 37.106 25.608ZM37.106 21.384C38.3007 21.384 39.3673 21.1707 40.306 20.744C41.266 20.3173 42.0767 19.7307 42.738 18.984C43.4207 18.216 43.9327 17.352 44.274 16.392C44.6367 15.4107 44.818 14.376 44.818 13.288C44.818 12.1147 44.6367 11.0373 44.274 10.056C43.9327 9.07467 43.4207 8.22133 42.738 7.496C42.0767 6.77067 41.266 6.20533 40.306 5.8C39.346 5.39467 38.2793 5.192 37.106 5.192C35.9113 5.192 34.834 5.39467 33.874 5.8C32.914 6.20533 32.0927 6.77067 31.41 7.496C30.7487 8.22133 30.2367 9.07467 29.874 10.056C29.5327 11.0373 29.362 12.1147 29.362 13.288C29.362 14.376 29.5327 15.4107 29.874 16.392C30.2367 17.352 30.7487 18.216 31.41 18.984C32.0927 19.7307 32.914 20.3173 33.874 20.744C34.834 21.1707 35.9113 21.384 37.106 21.384ZM57.6255 25.16V21.512H63.4815C64.5482 21.512 65.3588 21.224 65.9135 20.648C66.4682 20.0507 66.7455 19.24 66.7455 18.216C66.7455 17.192 66.4682 16.4027 65.9135 15.848C65.3588 15.272 64.5482 14.984 63.4815 14.984H57.6255V12.2H63.1615C64.7188 12.2 66.1055 12.392 67.3215 12.776C68.5588 13.1387 69.5188 13.7573 70.2015 14.632C70.9055 15.5067 71.2575 16.68 71.2575 18.152V18.6C71.2575 19.9867 70.9482 21.1707 70.3295 22.152C69.7322 23.112 68.8255 23.8587 67.6095 24.392C66.4148 24.904 64.9322 25.16 63.1615 25.16H57.6255ZM53.8175 25.16V1.48H58.2655V25.16H53.8175ZM57.6255 14.248V11.464H62.6175C63.7055 11.464 64.5055 11.176 65.0175 10.6C65.5295 10.024 65.7855 9.256 65.7855 8.296C65.7855 7.336 65.5295 6.568 65.0175 5.992C64.5055 5.416 63.7055 5.128 62.6175 5.128H57.6255V1.48H62.2015C64.8468 1.48 66.8522 2.03467 68.2175 3.144C69.6042 4.25333 70.2975 5.84267 70.2975 7.912V8.36C70.2975 9.81067 69.9455 10.9733 69.2415 11.848C68.5588 12.7013 67.6095 13.32 66.3935 13.704C65.1775 14.0667 63.7802 14.248 62.2015 14.248H57.6255ZM75.8488 25V1.64H80.2968V25H75.8488ZM79.6568 25V21.16H90.2488V25H79.6568ZM79.6568 15.048V11.208H89.4167V15.048H79.6568ZM79.6568 5.48V1.64H89.9928V5.48H79.6568ZM94.9113 25V1.48H99.4553V25H94.9113ZM109.183 25L102.015 14.824H107.103L114.495 25H109.183ZM98.1113 17.192V13.512H104.063C104.895 13.512 105.61 13.3413 106.207 13C106.826 12.6587 107.306 12.1787 107.647 11.56C107.989 10.9413 108.159 10.2373 108.159 9.448C108.159 8.63733 107.989 7.92267 107.647 7.304C107.306 6.68533 106.826 6.20533 106.207 5.864C105.61 5.52267 104.895 5.352 104.063 5.352H98.1113V1.48H103.583C105.461 1.48 107.082 1.75733 108.447 2.312C109.834 2.86667 110.901 3.70933 111.647 4.84C112.394 5.97067 112.767 7.38933 112.767 9.096V9.608C112.767 11.336 112.383 12.7547 111.615 13.864C110.869 14.9733 109.813 15.8053 108.447 16.36C107.082 16.9147 105.461 17.192 103.583 17.192H98.1113ZM121.957 25V5H126.501V25H121.957ZM115.205 5.64V1.64H133.253V5.64H115.205ZM147.169 25.608C145.057 25.608 143.222 25.2347 141.665 24.488C140.129 23.7413 138.849 22.7707 137.825 21.576C136.822 20.36 136.065 19.0587 135.553 17.672C135.062 16.264 134.817 14.9093 134.817 13.608V12.904C134.817 11.4747 135.073 10.056 135.585 8.648C136.097 7.21867 136.865 5.928 137.889 4.776C138.934 3.624 140.225 2.70667 141.76 2.024C143.297 1.32 145.099 0.967999 147.169 0.967999C149.217 0.967999 151.009 1.32 152.545 2.024C154.081 2.70667 155.361 3.624 156.385 4.776C157.43 5.928 158.209 7.21867 158.721 8.648C159.233 10.056 159.489 11.4747 159.489 12.904V13.608C159.489 14.9093 159.233 16.264 158.721 17.672C158.23 19.0587 157.473 20.36 156.449 21.576C155.446 22.7707 154.166 23.7413 152.609 24.488C151.073 25.2347 149.259 25.608 147.169 25.608ZM147.169 21.384C148.363 21.384 149.43 21.1707 150.369 20.744C151.329 20.3173 152.139 19.7307 152.801 18.984C153.483 18.216 153.995 17.352 154.337 16.392C154.699 15.4107 154.881 14.376 154.881 13.288C154.881 12.1147 154.699 11.0373 154.337 10.056C153.995 9.07467 153.483 8.22133 152.801 7.496C152.139 6.77067 151.329 6.20533 150.369 5.8C149.409 5.39467 148.342 5.192 147.169 5.192C145.974 5.192 144.897 5.39467 143.937 5.8C142.977 6.20533 142.155 6.77067 141.473 7.496C140.811 8.22133 140.299 9.07467 139.937 10.056C139.595 11.0373 139.425 12.1147 139.425 13.288C139.425 14.376 139.595 15.4107 139.937 16.392C140.299 17.352 140.811 18.216 141.473 18.984C142.155 19.7307 142.977 20.3173 143.937 20.744C144.897 21.1707 145.974 21.384 147.169 21.384ZM55.8962 40.072L48.8562 25.64H53.5282L58.9042 36.936L57.8802 36.616H60.9202L59.8322 36.936L64.7282 25.64H69.1442L62.6482 40.072H55.8962ZM57.0482 49V39.368H61.4962V49H57.0482ZM83.297 49.608C81.121 49.608 79.2863 49.192 77.793 48.36C76.2997 47.528 75.1583 46.3653 74.369 44.872C73.601 43.3573 73.217 41.5867 73.217 39.56V25.64H77.761V39.816C77.761 40.9253 77.9743 41.9067 78.401 42.76C78.8277 43.592 79.4463 44.2427 80.257 44.712C81.089 45.16 82.1023 45.384 83.297 45.384C84.4703 45.384 85.4623 45.16 86.273 44.712C87.105 44.2427 87.7237 43.592 88.129 42.76C88.5557 41.928 88.769 40.9467 88.769 39.816V25.64H93.313V39.56C93.313 41.5867 92.929 43.3573 92.161 44.872C91.4143 46.3653 90.2943 47.528 88.801 48.36C87.3077 49.192 85.473 49.608 83.297 49.608ZM115.05 49L106.506 38.088H103.21L113.354 25.64H118.57L109.418 36.84L109.29 34.6L120.586 49H115.05ZM99.9138 49V25.64H104.458V49H99.9138ZM124.539 49V25.64H129.083V49H124.539ZM147.169 49.608C145.057 49.608 143.222 49.2347 141.665 48.488C140.129 47.7413 138.849 46.7707 137.825 45.576C136.822 44.36 136.065 43.0587 135.553 41.672C135.062 40.264 134.817 38.9093 134.817 37.608V36.904C134.817 35.4747 135.073 34.056 135.585 32.648C136.097 31.2187 136.865 29.928 137.889 28.776C138.934 27.624 140.225 26.7067 141.76 26.024C143.297 25.32 145.099 24.968 147.169 24.968C149.217 24.968 151.009 25.32 152.545 26.024C154.081 26.7067 155.361 27.624 156.385 28.776C157.43 29.928 158.209 31.2187 158.721 32.648C159.233 34.056 159.489 35.4747 159.489 36.904V37.608C159.489 38.9093 159.233 40.264 158.721 41.672C158.23 43.0587 157.473 44.36 156.449 45.576C155.446 46.7707 154.166 47.7413 152.609 48.488C151.073 49.2347 149.259 49.608 147.169 49.608ZM147.169 45.384C148.363 45.384 149.43 45.1707 150.369 44.744C151.329 44.3173 152.139 43.7307 152.801 42.984C153.483 42.216 153.995 41.352 154.337 40.392C154.699 39.4107 154.881 38.376 154.881 37.288C154.881 36.1147 154.699 35.0373 154.337 34.056C153.995 33.0747 153.483 32.2213 152.801 31.496C152.139 30.7707 151.329 30.2053 150.369 29.8C149.409 29.3947 148.342 29.192 147.169 29.192C145.974 29.192 144.897 29.3947 143.937 29.8C142.977 30.2053 142.155 30.7707 141.473 31.496C140.811 32.2213 140.299 33.0747 139.937 34.056C139.595 35.0373 139.425 36.1147 139.425 37.288C139.425 38.376 139.595 39.4107 139.937 40.392C140.299 41.352 140.811 42.216 141.473 42.984C142.155 43.7307 142.977 44.3173 143.937 44.744C144.897 45.1707 145.974 45.384 147.169 45.384Z" fill="#FF8989"/>
</svg>
